{
  "asset": {
    "generator": "glTF-Transform v4.4.0",
    "version": "2.0"
  },
  "accessors": [
    {
      "type": "SCALAR",
      "componentType": 5123,
      "count": 92403,
      "bufferView": 0,
      "byteOffset": 0
    },
    {
      "type": "VEC3",
      "componentType": 5122,
      "count": 26174,
      "max": [
        27455,
        32767,
        20626
      ],
      "min": [
        -27455,
        -32767,
        -20626
      ],
      "normalized": true,
      "bufferView": 1,
      "byteOffset": 0
    },
    {
      "type": "VEC3",
      "componentType": 5122,
      "count": 26174,
      "normalized": true,
      "bufferView": 1,
      "byteOffset": 8
    },
    {
      "type": "VEC2",
      "componentType": 5123,
      "count": 26174,
      "normalized": true,
      "bufferView": 1,
      "byteOffset": 16
    }
  ],
  "bufferViews": [
    {
      "buffer": 0,
      "byteOffset": 0,
      "byteLength": 184808,
      "target": 34963
    },
    {
      "buffer": 0,
      "byteOffset": 184808,
      "byteLength": 523480,
      "byteStride": 20,
      "target": 34962
    }
  ],
  "samplers": [
    {
      "magFilter": 9729,
      "minFilter": 9987,
      "wrapS": 10497,
      "wrapT": 10497
    }
  ],
  "textures": [
    {
      "source": 2,
      "sampler": 0
    },
    {
      "source": 0,
      "sampler": 0
    },
    {
      "source": 1,
      "sampler": 0
    },
    {
      "source": 3,
      "sampler": 0
    }
  ],
  "images": [
    {
      "name": "Image_3",
      "mimeType": "image/jpeg",
      "uri": "emissive_1.jpg"
    },
    {
      "name": "normal",
      "mimeType": "image/png",
      "uri": "normal_1.png"
    },
    {
      "name": "Image_0",
      "mimeType": "image/jpeg",
      "uri": "baseColor_1.jpg"
    },
    {
      "name": "Image_1",
      "mimeType": "image/jpeg",
      "uri": "metallicRoughness_1.jpg"
    }
  ],
  "buffers": [
    {
      "uri": "epic.bin",
      "byteLength": 708288
    }
  ],
  "materials": [
    {
      "name": "Material_0",
      "doubleSided": true,
      "pbrMetallicRoughness": {
        "baseColorTexture": {
          "index": 0
        },
        "metallicRoughnessTexture": {
          "index": 3
        }
      },
      "emissiveFactor": [
        1,
        1,
        1
      ],
      "emissiveTexture": {
        "index": 1
      },
      "normalTexture": {
        "index": 2
      }
    }
  ],
  "meshes": [
    {
      "name": "Mesh_0",
      "primitives": [
        {
          "attributes": {
            "POSITION": 1,
            "NORMAL": 2,
            "TEXCOORD_0": 3
          },
          "mode": 4,
          "material": 0,
          "indices": 0
        }
      ]
    }
  ],
  "nodes": [
    {
      "name": "Mesh_0",
      "translation": [
        -0.000943988561630249,
        -0.0009149610996246338,
        -0.0009824633598327637
      ],
      "scale": [
        0.9549791514873505,
        0.9549791514873505,
        0.9549791514873505
      ],
      "mesh": 0
    }
  ],
  "scenes": [
    {
      "name": "Scene",
      "nodes": [
        0
      ]
    }
  ],
  "scene": 0,
  "extensionsUsed": [
    "KHR_mesh_quantization"
  ],
  "extensionsRequired": [
    "KHR_mesh_quantization"
  ]
}